<svg width="200" height="200" viewBox="0 0 200 200" fill="none" xmlns="http://www.w3.org/2000/svg">
<path d="M100 168C62.4 168 32 137.6 32 100C32 62.4 62.4 32 100 32C137.6 32 168 62.4 168 100C168 137.6 137.6 168 100 168ZM100 40C66.8 40 40 66.8 40 100C40 133.2 66.8 160 100 160C133.2 160 160 133.2 160 100C160 66.8 133.2 40 100 40Z" fill="black"/>
<path d="M101.2 138.8L62.3999 100L101.2 61.2002L106.8 66.8002L73.5999 100L106.8 133.2L101.2 138.8Z" fill="black"/>
<path d="M68 96H136V104H68V96Z" fill="black"/>
</svg>
