<svg width="50" height="50" viewBox="0 0 50 50" fill="none" xmlns="http://www.w3.org/2000/svg">
<path fill-rule="evenodd" clip-rule="evenodd" d="M3.90625 25.0001C3.90625 24.3785 4.15318 23.7824 4.59272 23.3428C5.03226 22.9033 5.6284 22.6564 6.25 22.6564H38.0937L29.5938 14.1564C29.1798 13.7121 28.9544 13.1244 28.9651 12.5172C28.9758 11.9101 29.2218 11.3307 29.6512 10.9013C30.0806 10.4719 30.6599 10.2259 31.2671 10.2152C31.8743 10.2045 32.462 10.4299 32.9062 10.8439L45.4062 23.3439C45.8452 23.7833 46.0917 24.379 46.0917 25.0001C46.0917 25.6212 45.8452 26.2169 45.4062 26.6564L32.9062 39.1564C32.6917 39.3867 32.4329 39.5713 32.1454 39.6994C31.8579 39.8275 31.5476 39.8964 31.2329 39.902C30.9182 39.9075 30.6056 39.8496 30.3138 39.7318C30.0219 39.6139 29.7568 39.4384 29.5343 39.2159C29.3117 38.9933 29.1362 38.7282 29.0184 38.4364C28.9005 38.1445 28.8426 37.8319 28.8482 37.5172C28.8537 37.2026 28.9226 36.8922 29.0507 36.6047C29.1788 36.3172 29.3635 36.0585 29.5938 35.8439L38.0937 27.3439H6.25C5.6284 27.3439 5.03226 27.0969 4.59272 26.6574C4.15318 26.2179 3.90625 25.6217 3.90625 25.0001Z" fill="white"/>
</svg>
